<?xml version="1.0" encoding="UTF-8" standalone="no"?> <svg width="24" height="24" viewBox="0 0 24 24" fill="none" xmlns="http://www.w3.org/2000/svg">
<path fill-rule="evenodd" clip-rule="evenodd" d="M12 0C12.5523 0 13 0.447715 13 1L13 2C15.3311 2 17.2874 3.59442 17.8424 5.75074C17.98 6.28559 17.6581 6.83078 17.1232 6.96844C16.5884 7.1061 16.0432 6.78411 15.9055 6.24926C15.5724 4.95512 14.3965 4 13 4L13 10.6345L14.8194 11.24C17.2693 11.8286 19 14.0206 19 16.5444C19 19.5575 16.5574 22 13.5444 22H13V23C13 23.5523 12.5523 24 12 24C11.4477 24 11 23.5523 11 23V22H10.5C7.66829 22 5.3376 19.8609 5.03349 17.1099C4.9728 16.5609 5.36862 16.0667 5.91756 16.0061C6.4665 15.9454 6.96069 16.3412 7.02138 16.8901C7.21471 18.639 8.69909 20 10.5 20H11V12.0768L9.74849 11.6603C7.55152 11.1299 5.99997 9.16302 5.99997 6.89861C5.99997 4.19318 8.19315 2 10.8986 2H11V1C11 0.447715 11.4477 0 12 0ZM11 4H10.8986C9.29772 4 7.99997 5.29775 7.99997 6.89861C7.99997 8.24836 8.93161 9.41948 10.2468 9.72299L10.2928 9.73361L11 9.96893V4ZM13 12.7423V20H13.5444C15.4529 20 17 18.4529 17 16.5444C17 14.9353 15.8893 13.5392 14.3214 13.1774L14.2754 13.1668L13 12.7423Z" fill="#293644"/>
</svg>
